# Blender v3.0.1 OBJ File: 'Station2.blend'
# www.blender.org
mtllib Reshetka.mtl
o Плоскость.006
v 7.783236 50.230270 -100.613083
v 18.464260 50.230270 -100.613083
v 7.783236 50.230270 -102.393608
v 18.464260 50.230270 -102.393608
v 9.876472 50.230270 -100.613083
v 9.876472 50.230270 -102.393608
v 7.783236 50.230270 -106.077812
v 9.876472 50.230270 -106.077812
v 7.783236 50.230270 -105.247299
v 7.783236 50.230270 -104.019234
v 9.876472 50.230270 -104.019234
v 9.876472 50.230270 -105.247299
v 7.783236 50.230270 -105.247299
v 7.783236 50.230270 -104.019234
v 6.740096 50.230270 -105.247299
v 6.740096 50.230270 -104.019234
v 9.267522 50.230270 -102.393608
v 9.267522 50.230270 -100.613083
v 9.267522 50.230270 -106.077812
v 9.267522 50.230270 -104.019234
v 9.267522 50.230270 -105.247299
v 8.368198 50.230270 -102.393608
v 8.368198 50.230270 -106.077812
v 8.368198 50.230270 -104.019234
v 8.368198 50.230270 -105.247299
v 8.368198 50.230270 -100.613083
v 9.267522 50.230270 -107.284363
v 8.368198 50.230270 -107.284363
v 8.368198 50.230270 -106.460609
v 9.267522 50.230270 -106.460609
v 10.350285 50.230270 -107.585403
v 10.350285 50.230270 -106.460609
v 7.783236 50.230270 -103.206421
v 9.876472 50.230270 -103.206421
v 9.267522 50.230270 -103.206421
v 8.368198 50.230270 -103.206421
v 7.783236 50.230270 -104.633263
v 9.876472 50.230270 -104.633263
v 7.783236 50.230270 -104.633263
v 6.740096 50.230270 -104.633263
v 9.267522 50.230270 -104.633263
v 8.368198 50.230270 -104.633263
v 9.876472 50.230270 -105.662552
v 7.783236 50.230270 -105.662552
v 9.267522 50.230270 -105.662552
v 8.368198 50.230270 -105.662552
v 7.783236 50.230270 -101.503349
v 18.464260 50.230270 -101.503349
v 9.876472 50.230270 -101.503349
v 9.267522 50.230270 -101.503349
v 8.368198 50.230270 -101.503349
v 10.949945 50.230270 -100.613083
v 12.023418 50.230270 -100.613083
v 13.096891 50.230270 -100.613083
v 14.170365 50.230270 -100.613083
v 15.243839 50.230270 -100.613083
v 16.317312 50.230270 -100.613083
v 17.390785 50.230270 -100.613083
v 17.390787 50.230270 -102.393608
v 16.317314 50.230270 -102.393608
v 15.243839 50.230270 -102.393608
v 14.170366 50.230270 -102.393608
v 13.096893 50.230270 -102.393608
v 12.023418 50.230270 -102.393608
v 10.949945 50.230270 -102.393608
v 17.390787 50.230270 -101.503349
v 16.317314 50.230270 -101.503349
v 15.243839 50.230270 -101.503349
v 14.170366 50.230270 -101.503349
v 13.096893 50.230270 -101.503349
v 12.023418 50.230270 -101.503349
v 10.949945 50.230270 -101.503349
vt 1.266784 0.436351
vt 1.010877 0.436351
vt 1.010877 1.050992
vt 1.266783 1.050992
vt 0.397531 0.292850
vt 0.397531 0.003391
vt 0.059225 0.003391
vt 0.059225 0.292850
vt 0.125459 0.291918
vt 0.125459 0.001071
vt 0.323800 0.001071
vt 0.323800 0.291918
vt 0.338663 0.292997
vt 0.338663 0.003046
vt 0.670895 0.003046
vt 0.670895 0.292997
vt 0.408088 0.291935
vt 0.408088 0.001203
vt 0.699306 0.001203
vt 0.699306 0.291935
vt 0.376385 1.000000
vt 0.433874 1.000000
vt 0.433874 1.000000
vt 0.376385 1.000000
vt 0.138892 0.588223
vt 0.138892 0.126957
vt 0.922503 0.126957
vt 0.922503 0.588223
vt 0.408088 0.721322
vt 0.699306 0.721322
vt 0.338663 0.721229
vt 0.670895 0.721229
vt 0.125459 0.721475
vt 0.323800 0.721475
vt 0.397531 0.720357
vt 0.059225 0.720357
vt 0.397531 0.998417
vt 0.059225 0.998417
vt 0.125459 1.000869
vt 0.323800 1.000869
vt 0.338663 0.999762
vt 0.670895 0.999762
vt 0.408088 1.000605
vt 0.699306 1.000605
vt 0.294940 0.994286
vt 0.294940 0.009264
vt 1.001250 0.009264
vt 1.001250 0.994286
vt -0.033279 0.994286
vt -0.033279 0.009264
vt 0.343335 0.999779
vt 0.343335 0.720957
vt 0.611481 0.720957
vt 0.611481 0.999779
vt 0.343335 0.292281
vt 0.611481 0.292281
vt 0.343335 0.002030
vt 0.611481 0.002030
vt 0.116869 1.000605
vt 0.116869 0.721322
vt 0.116869 0.291935
vt 0.138892 0.753323
vt 0.138892 0.292057
vt 0.922503 0.292057
vt 0.922503 0.753323
vt 0.318897 1.000000
vt 0.318897 1.000000
vt 0.116869 0.001203
vt 0.896250 0.721322
vt 0.896250 1.000605
vt 0.896250 0.291935
vt 0.896250 0.001203
vt -0.029148 0.998417
vt -0.029148 0.720357
vt 0.308942 0.720357
vt 0.308942 0.998417
vt -0.029148 0.292850
vt 0.308942 0.292850
vt -0.029148 0.003391
vt 0.308942 0.003391
vt 1.266783 1.050992
vt 1.010877 1.050992
vt 1.010877 0.436740
vt 1.266784 0.436740
vt 1.522690 1.050992
vt 1.266783 1.050992
vt 1.266784 0.436740
vt 1.522690 0.436740
vt 1.010877 1.050992
vt 1.010877 0.436740
vt 0.754970 1.050992
vt 0.754971 0.436740
vt 1.266783 1.050992
vt 1.010877 1.050992
vt 1.010877 0.436740
vt 1.266784 0.436740
vt 0.754970 1.050992
vt 0.754971 0.436740
vt 1.266783 1.050992
vt 1.010877 1.050992
vt 1.010877 0.436740
vt 1.266783 0.436740
vt 0.754970 1.050992
vt 0.754970 0.436740
vt 1.650651 0.451505
vt 1.394744 0.451505
vt 1.394744 1.066146
vt 1.650651 1.066146
vt 1.266784 0.451505
vt 1.010877 0.451505
vt 1.010877 1.066146
vt 1.266783 1.066146
vt 1.010877 0.444123
vt 0.754971 0.444123
vt 0.754970 1.058764
vt 1.010877 1.058764
vt 1.266783 0.444123
vt 1.010877 0.444123
vt 1.010877 1.058764
vt 1.266783 1.058764
vt 1.010877 0.436351
vt 0.754971 0.436351
vt 0.754970 1.050992
vt 1.010877 1.050992
vt 1.266783 0.436351
vt 1.010877 0.436351
vt 1.010877 1.050992
vt 1.266783 1.050992
vt 0.754970 0.436351
vt 0.754970 1.050992
vn 0.0000 1.0000 0.0000
vn 0.0000 0.0000 1.0000
g Плоскость.006_Плоскость.006_Материал.001
usemtl Материал.001
s off
f 66/1/1 48/2/1 4/3/1 59/4/1
f 50/5/1 49/6/1 6/7/1 17/8/1
f 45/9/1 43/10/1 8/11/1 19/12/1
f 35/13/1 34/14/1 11/15/1 20/16/1
f 41/17/1 38/18/1 12/19/1 21/20/1
f 37/21/2 9/22/2 13/23/2 39/24/2
f 39/25/1 13/26/1 15/27/1 40/28/1
f 42/29/1 41/17/1 21/20/1 25/30/1
f 36/31/1 35/13/1 20/16/1 24/32/1
f 46/33/1 45/9/1 19/12/1 23/34/1
f 51/35/1 50/5/1 17/8/1 22/36/1
f 47/37/1 51/35/1 22/36/1 3/38/1
f 44/39/1 46/33/1 23/34/1 7/40/1
f 33/41/1 36/31/1 24/32/1 10/42/1
f 37/43/1 42/29/1 25/30/1 9/44/1
f 29/45/1 30/46/1 27/47/1 28/48/1
f 23/49/1 19/50/1 30/46/1 29/45/1
f 3/51/1 22/52/1 36/53/1 33/54/1
f 22/52/1 17/55/1 35/56/1 36/53/1
f 17/55/1 6/57/1 34/58/1 35/56/1
f 10/59/1 24/60/1 42/29/1 37/43/1
f 24/60/1 20/61/1 41/17/1 42/29/1
f 14/62/1 39/63/1 40/64/1 16/65/1
f 10/66/2 37/21/2 39/24/2 14/67/2
f 20/61/1 11/68/1 38/18/1 41/17/1
f 9/44/1 25/30/1 46/69/1 44/70/1
f 25/30/1 21/20/1 45/71/1 46/69/1
f 21/20/1 12/19/1 43/72/1 45/71/1
f 1/73/1 26/74/1 51/75/1 47/76/1
f 26/74/1 18/77/1 50/78/1 51/75/1
f 18/77/1 5/79/1 49/80/1 50/78/1
f 58/81/1 2/82/1 48/83/1 66/84/1
f 5/85/1 52/86/1 72/87/1 49/88/1
f 52/86/1 53/89/1 71/90/1 72/87/1
f 53/89/1 54/91/1 70/92/1 71/90/1
f 54/93/1 55/94/1 69/95/1 70/96/1
f 55/94/1 56/97/1 68/98/1 69/95/1
f 56/99/1 57/100/1 67/101/1 68/102/1
f 57/100/1 58/103/1 66/104/1 67/101/1
f 49/105/1 72/106/1 65/107/1 6/108/1
f 72/109/1 71/110/1 64/111/1 65/112/1
f 71/113/1 70/114/1 63/115/1 64/116/1
f 70/117/1 69/118/1 62/119/1 63/120/1
f 69/121/1 68/122/1 61/123/1 62/124/1
f 68/125/1 67/126/1 60/127/1 61/128/1
f 67/126/1 66/129/1 59/130/1 60/127/1
o Плоскость.007
v 13.605547 47.433521 -106.077812
v 15.325365 47.433521 -106.077812
v 13.605547 47.433521 -117.927681
v 15.325365 47.433521 -117.927681
v 13.605547 47.433521 -114.965218
v 13.605547 47.433521 -112.002747
v 13.605547 47.433521 -109.040276
v 15.325365 47.433521 -109.040276
v 15.325365 47.433521 -112.002747
v 15.325365 47.433521 -114.965218
vt 1.050035 0.994398
vt -0.050035 0.994397
vt -0.050035 0.003680
vt 1.050035 0.003681
vt 1.059954 0.995939
vt -0.059954 0.995938
vt -0.059954 0.010905
vt 1.059954 0.010905
vt 1.061545 0.995991
vt -0.061545 0.995991
vt -0.061545 0.012852
vt 1.061545 0.012853
vt 1.049260 0.999395
vt -0.049260 0.999395
vt -0.049260 0.011448
vt 1.049260 0.011448
vn 0.0000 1.0000 0.0000
g Плоскость.007_Плоскость.007_Материал.001
usemtl Материал.001
s off
f 77/131/3 82/132/3 76/133/3 75/134/3
f 73/135/3 74/136/3 80/137/3 79/138/3
f 79/139/3 80/140/3 81/141/3 78/142/3
f 78/143/3 81/144/3 82/145/3 77/146/3
