# Blender v3.0.1 OBJ File: 'Station2.blend'
# www.blender.org
mtllib Windows.mtl
o Плоскость_Плоскость.001
v -31.641155 58.378082 -33.851582
v -26.078655 58.378082 -33.851582
v -31.641155 51.703079 -33.851582
v -26.078655 51.703079 -33.851582
v -31.641155 62.383080 -33.851582
v -26.078655 62.383080 -33.851582
v -31.641155 60.158081 -33.851582
v -26.078655 60.158081 -33.851582
v -24.966158 58.378078 -33.851582
v -19.403658 58.378082 -33.851582
v -24.966158 51.703079 -33.851582
v -19.403658 51.703083 -33.851582
v -24.966156 62.383080 -33.851582
v -19.403656 62.383080 -33.851582
v -24.966156 60.158081 -33.851582
v -19.403656 60.158081 -33.851582
v -18.291157 58.378082 -33.851582
v -12.728657 58.378082 -33.851582
v -18.291157 51.703079 -33.851582
v -12.728657 51.703083 -33.851582
v -18.291157 62.383080 -33.851582
v -12.728655 62.383080 -33.851582
v -18.291155 60.158081 -33.851582
v -12.728655 60.158081 -33.851582
v -11.616156 58.378078 -33.851578
v -6.053656 58.378082 -33.851582
v -11.616156 51.703079 -33.851582
v -6.053656 51.703083 -33.851582
v -11.616154 62.383080 -33.851582
v -6.053654 62.383080 -33.851582
v -11.616154 60.158081 -33.851582
v -6.053654 60.158081 -33.851582
v -4.941156 58.378082 -33.851582
v 0.621344 58.378082 -33.851582
v -4.941156 51.703079 -33.851582
v 0.621344 51.703083 -33.851582
v -4.941154 62.383080 -33.851582
v 0.621346 62.383080 -33.851582
v -4.941154 60.158081 -33.851582
v 0.621346 60.158081 -33.851582
v 1.733843 58.378078 -33.851582
v 7.296341 58.378082 -33.851582
v 1.733843 51.703079 -33.851582
v 7.296341 51.703083 -33.851582
v 1.733845 62.383080 -33.851582
v 7.296345 62.383080 -33.851582
v 1.733845 60.158081 -33.851582
v 7.296345 60.158081 -33.851582
v 8.408844 58.378082 -33.851578
v 13.971344 58.378082 -33.851582
v 8.408844 51.703079 -33.851582
v 13.971344 51.703083 -33.851582
v 8.408844 62.383080 -33.851582
v 13.971344 62.383080 -33.851582
v 8.408844 60.158081 -33.851582
v 13.971344 60.158081 -33.851582
v 15.083843 58.378082 -33.851582
v 20.646343 58.378082 -33.851582
v 15.083843 51.703079 -33.851582
v 20.646343 51.703083 -33.851582
v 15.083843 62.383080 -33.851582
v 20.646343 62.383080 -33.851582
v 15.083843 60.158081 -33.851582
v 20.646343 60.158081 -33.851582
v 21.758842 58.378082 -33.851582
v 27.321342 58.378082 -33.851582
v 21.758842 51.703079 -33.851582
v 27.321342 51.703083 -33.851582
v 21.758846 62.383080 -33.851582
v 27.321346 62.383080 -33.851582
v 21.758846 60.158081 -33.851582
v 27.321346 60.158081 -33.851582
vt 0.000000 0.000000
vt 1.000000 0.000000
vt 1.000000 1.000000
vt 0.000000 1.000000
vt 0.000000 0.000000
vt 1.000000 0.000000
vt 1.000000 1.000000
vt 0.000000 1.000000
vt 0.000000 0.000000
vt 1.000000 0.000000
vt 1.000000 1.000000
vt 0.000000 1.000000
vt 0.000000 0.000000
vt 1.000000 0.000000
vt 1.000000 1.000000
vt 0.000000 1.000000
vt 0.000000 0.000000
vt 1.000000 0.000000
vt 1.000000 1.000000
vt 0.000000 1.000000
vt 0.000000 0.000000
vt 1.000000 0.000000
vt 1.000000 1.000000
vt 0.000000 1.000000
vt 0.000000 0.000000
vt 1.000000 0.000000
vt 1.000000 1.000000
vt 0.000000 1.000000
vt 0.000000 0.000000
vt 1.000000 0.000000
vt 1.000000 1.000000
vt 0.000000 1.000000
vt 0.000000 0.000000
vt 1.000000 0.000000
vt 1.000000 1.000000
vt 0.000000 1.000000
vt 0.000000 0.000000
vt 1.000000 0.000000
vt 1.000000 1.000000
vt 0.000000 1.000000
vt 0.000000 0.000000
vt 1.000000 0.000000
vt 1.000000 1.000000
vt 0.000000 1.000000
vt 0.000000 0.000000
vt 1.000000 0.000000
vt 1.000000 1.000000
vt 0.000000 1.000000
vt 0.000000 0.000000
vt 1.000000 0.000000
vt 1.000000 1.000000
vt 0.000000 1.000000
vt 0.000000 0.000000
vt 1.000000 0.000000
vt 1.000000 1.000000
vt 0.000000 1.000000
vt 0.000000 0.000000
vt 1.000000 0.000000
vt 1.000000 1.000000
vt 0.000000 1.000000
vt 0.000000 0.000000
vt 1.000000 0.000000
vt 1.000000 1.000000
vt 0.000000 1.000000
vt 0.000000 0.000000
vt 1.000000 0.000000
vt 1.000000 1.000000
vt 0.000000 1.000000
vt 0.000000 0.000000
vt 1.000000 0.000000
vt 1.000000 1.000000
vt 0.000000 1.000000
vn 0.0000 0.0000 -1.0000
g Плоскость_Плоскость.001_Материал.002
usemtl Материал.002
s off
f 1/1/1 2/2/1 4/3/1 3/4/1
f 5/5/1 6/6/1 8/7/1 7/8/1
f 9/9/1 10/10/1 12/11/1 11/12/1
f 13/13/1 14/14/1 16/15/1 15/16/1
f 17/17/1 18/18/1 20/19/1 19/20/1
f 21/21/1 22/22/1 24/23/1 23/24/1
f 25/25/1 26/26/1 28/27/1 27/28/1
f 29/29/1 30/30/1 32/31/1 31/32/1
f 33/33/1 34/34/1 36/35/1 35/36/1
f 37/37/1 38/38/1 40/39/1 39/40/1
f 41/41/1 42/42/1 44/43/1 43/44/1
f 45/45/1 46/46/1 48/47/1 47/48/1
f 49/49/1 50/50/1 52/51/1 51/52/1
f 53/53/1 54/54/1 56/55/1 55/56/1
f 57/57/1 58/58/1 60/59/1 59/60/1
f 61/61/1 62/62/1 64/63/1 63/64/1
f 65/65/1 66/66/1 68/67/1 67/68/1
f 69/69/1 70/70/1 72/71/1 71/72/1
o Плоскость.018_Плоскость.023
v -33.140930 62.383083 -75.627274
v -33.140930 62.383083 -81.189774
v -33.140930 60.158085 -75.627274
v -33.140930 60.158085 -81.189774
v -33.142422 58.378078 -35.577271
v -33.142422 58.378082 -41.139771
v -33.142422 51.703079 -35.577274
v -33.142422 51.703083 -41.139774
v -33.140930 62.383080 -35.577271
v -33.140930 62.383083 -41.139771
v -33.140930 60.158081 -35.577271
v -33.140930 60.158081 -41.139771
v -33.142422 58.378078 -42.252270
v -33.142422 58.378082 -47.814766
v -33.142422 51.703079 -42.252274
v -33.142422 51.703083 -47.814774
v -33.140930 62.383080 -42.252270
v -33.140930 62.383083 -47.814774
v -33.140930 60.158081 -42.252270
v -33.140930 60.158081 -47.814774
v -33.142422 58.378078 -48.927269
v -33.142422 58.378082 -54.489769
v -33.142422 51.703079 -48.927269
v -33.142422 51.703083 -54.489769
v -33.140930 62.383080 -48.927273
v -33.140930 62.383083 -54.489773
v -33.140930 60.158081 -48.927273
v -33.140930 60.158081 -54.489773
v -33.142422 58.378078 -55.602268
v -33.142422 58.378082 -61.164768
v -33.142422 51.703079 -55.602272
v -33.142422 51.703083 -61.164772
v -33.140930 62.383080 -55.602272
v -33.140930 62.383083 -61.164772
v -33.140930 60.158081 -55.602272
v -33.140930 60.158081 -61.164772
v -33.142422 58.378078 -62.277271
v -33.142422 58.378082 -67.839767
v -33.142422 51.703079 -62.277275
v -33.142422 51.703079 -67.839775
v -33.140930 62.383080 -62.277275
v -33.140930 62.383083 -67.839775
v -33.140930 60.158081 -62.277275
v -33.140930 60.158081 -67.839775
v -33.142422 58.378078 -68.952271
v -33.142422 58.378082 -74.514771
v -33.142422 51.703079 -68.952271
v -33.142422 51.703083 -74.514771
v -33.140930 62.383080 -68.952271
v -33.140930 62.383083 -74.514771
v -33.140930 60.158081 -68.952271
v -33.140930 60.158081 -74.514771
v -33.142422 58.378078 -75.627274
v -33.142422 58.378082 -81.189774
v -33.142422 51.703079 -75.627274
v -33.142422 51.703083 -81.189774
vt 0.000000 0.000000
vt 1.000000 0.000000
vt 1.000000 1.000000
vt 0.000000 1.000000
vt 0.000000 0.000000
vt 1.000000 0.000000
vt 1.000000 1.000000
vt 0.000000 1.000000
vt 0.000000 0.000000
vt 1.000000 0.000000
vt 1.000000 1.000000
vt 0.000000 1.000000
vt 0.000000 0.000000
vt 1.000000 0.000000
vt 1.000000 1.000000
vt 0.000000 1.000000
vt 0.000000 0.000000
vt 1.000000 0.000000
vt 1.000000 1.000000
vt 0.000000 1.000000
vt 0.000000 0.000000
vt 1.000000 0.000000
vt 1.000000 1.000000
vt 0.000000 1.000000
vt 0.000000 0.000000
vt 1.000000 0.000000
vt 1.000000 1.000000
vt 0.000000 1.000000
vt 0.000000 0.000000
vt 1.000000 0.000000
vt 1.000000 1.000000
vt 0.000000 1.000000
vt 0.000000 0.000000
vt 1.000000 0.000000
vt 1.000000 1.000000
vt 0.000000 1.000000
vt 0.000000 0.000000
vt 1.000000 0.000000
vt 1.000000 1.000000
vt 0.000000 1.000000
vt 0.000000 0.000000
vt 1.000000 0.000000
vt 1.000000 1.000000
vt 0.000000 1.000000
vt 0.000000 0.000000
vt 1.000000 0.000000
vt 1.000000 1.000000
vt 0.000000 1.000000
vt 0.000000 0.000000
vt 1.000000 0.000000
vt 1.000000 1.000000
vt 0.000000 1.000000
vt 0.000000 0.000000
vt 1.000000 0.000000
vt 1.000000 1.000000
vt 0.000000 1.000000
vn -1.0000 0.0000 0.0000
g Плоскость.018_Плоскость.023_Материал
usemtl Материал
s off
f 73/73/2 74/74/2 76/75/2 75/76/2
f 77/77/2 78/78/2 80/79/2 79/80/2
f 81/81/2 82/82/2 84/83/2 83/84/2
f 85/85/2 86/86/2 88/87/2 87/88/2
f 89/89/2 90/90/2 92/91/2 91/92/2
f 93/93/2 94/94/2 96/95/2 95/96/2
f 97/97/2 98/98/2 100/99/2 99/100/2
f 101/101/2 102/102/2 104/103/2 103/104/2
f 105/105/2 106/106/2 108/107/2 107/108/2
f 109/109/2 110/110/2 112/111/2 111/112/2
f 113/113/2 114/114/2 116/115/2 115/116/2
f 117/117/2 118/118/2 120/119/2 119/120/2
f 121/121/2 122/122/2 124/123/2 123/124/2
f 125/125/2 126/126/2 128/127/2 127/128/2
o Плоскость.033_Плоскость.022
v 29.075640 62.383083 -75.627274
v 29.075640 62.383083 -81.189774
v 29.075640 60.158085 -75.627274
v 29.075640 60.158085 -81.189774
v 29.074150 58.378078 -35.577271
v 29.074150 58.378082 -41.139771
v 29.074150 51.703079 -35.577274
v 29.074150 51.703083 -41.139774
v 29.075640 62.383080 -35.577271
v 29.075640 62.383083 -41.139771
v 29.075640 60.158081 -35.577271
v 29.075640 60.158081 -41.139771
v 29.074150 58.378078 -42.252270
v 29.074150 58.378082 -47.814766
v 29.074150 51.703079 -42.252274
v 29.074150 51.703083 -47.814774
v 29.075640 62.383080 -42.252270
v 29.075640 62.383083 -47.814774
v 29.075640 60.158081 -42.252270
v 29.075640 60.158081 -47.814774
v 29.074150 58.378078 -48.927269
v 29.074150 58.378082 -54.489769
v 29.074150 51.703079 -48.927269
v 29.074150 51.703083 -54.489769
v 29.075640 62.383080 -48.927273
v 29.075640 62.383083 -54.489773
v 29.075640 60.158081 -48.927273
v 29.075640 60.158081 -54.489773
v 29.074150 58.378078 -55.602268
v 29.074150 58.378082 -61.164768
v 29.074150 51.703079 -55.602272
v 29.074148 51.703083 -61.164772
v 29.075640 62.383080 -55.602272
v 29.075640 62.383083 -61.164772
v 29.075640 60.158081 -55.602272
v 29.075640 60.158081 -61.164772
v 29.074150 58.378078 -62.277271
v 29.074150 58.378082 -67.839767
v 29.074148 51.703079 -62.277275
v 29.074148 51.703079 -67.839775
v 29.075640 62.383080 -62.277275
v 29.075640 62.383083 -67.839775
v 29.075640 60.158081 -62.277275
v 29.075640 60.158081 -67.839775
v 29.074150 58.378078 -68.952271
v 29.074150 58.378082 -74.514771
v 29.074148 51.703079 -68.952271
v 29.074148 51.703083 -74.514771
v 29.075640 62.383080 -68.952271
v 29.075640 62.383083 -74.514771
v 29.075640 60.158081 -68.952271
v 29.075640 60.158081 -74.514771
v 29.074150 58.378078 -75.627274
v 29.074148 58.378082 -81.189774
v 29.074148 51.703079 -75.627274
v 29.074148 51.703083 -81.189774
vt 0.000000 0.000000
vt 1.000000 0.000000
vt 1.000000 1.000000
vt 0.000000 1.000000
vt 0.000000 0.000000
vt 1.000000 0.000000
vt 1.000000 1.000000
vt 0.000000 1.000000
vt 0.000000 0.000000
vt 1.000000 0.000000
vt 1.000000 1.000000
vt 0.000000 1.000000
vt 0.000000 0.000000
vt 1.000000 0.000000
vt 1.000000 1.000000
vt 0.000000 1.000000
vt 0.000000 0.000000
vt 1.000000 0.000000
vt 1.000000 1.000000
vt 0.000000 1.000000
vt 0.000000 0.000000
vt 1.000000 0.000000
vt 1.000000 1.000000
vt 0.000000 1.000000
vt 0.000000 0.000000
vt 1.000000 0.000000
vt 1.000000 1.000000
vt 0.000000 1.000000
vt 0.000000 0.000000
vt 1.000000 0.000000
vt 1.000000 1.000000
vt 0.000000 1.000000
vt 0.000000 0.000000
vt 1.000000 0.000000
vt 1.000000 1.000000
vt 0.000000 1.000000
vt 0.000000 0.000000
vt 1.000000 0.000000
vt 1.000000 1.000000
vt 0.000000 1.000000
vt 0.000000 0.000000
vt 1.000000 0.000000
vt 1.000000 1.000000
vt 0.000000 1.000000
vt 0.000000 0.000000
vt 1.000000 0.000000
vt 1.000000 1.000000
vt 0.000000 1.000000
vt 0.000000 0.000000
vt 1.000000 0.000000
vt 1.000000 1.000000
vt 0.000000 1.000000
vt 0.000000 0.000000
vt 1.000000 0.000000
vt 1.000000 1.000000
vt 0.000000 1.000000
vn -1.0000 0.0000 0.0000
g Плоскость.033_Плоскость.022_Материал
usemtl Материал
s off
f 129/129/3 130/130/3 132/131/3 131/132/3
f 133/133/3 134/134/3 136/135/3 135/136/3
f 137/137/3 138/138/3 140/139/3 139/140/3
f 141/141/3 142/142/3 144/143/3 143/144/3
f 145/145/3 146/146/3 148/147/3 147/148/3
f 149/149/3 150/150/3 152/151/3 151/152/3
f 153/153/3 154/154/3 156/155/3 155/156/3
f 157/157/3 158/158/3 160/159/3 159/160/3
f 161/161/3 162/162/3 164/163/3 163/164/3
f 165/165/3 166/166/3 168/167/3 167/168/3
f 169/169/3 170/170/3 172/171/3 171/172/3
f 173/173/3 174/174/3 176/175/3 175/176/3
f 177/177/3 178/178/3 180/179/3 179/180/3
f 181/181/3 182/182/3 184/183/3 183/184/3
